# xmcd
# 
# Track frame offsets:
#     150
#     18975
#     35886
#     53463
#     67211
#     85361
#     105502
#     125362
#     147189
#     167240
#     188483
#     208920
#     230945
# 
# Disc length: 3344
# 
# Revision: 2
# Processed by: cddbd v1.5.2PL0 Copyright (c) Steve Scherf et al.
# Submitted via: fre:ac v1.0.31
# 
DISCID=bc0d0e0d
DTITLE=Candy Dulfer - Candy Store
DYEAR=2007
DGENRE=Jazz
TTITLE0=Candy
TTITLE1=L.A. Citylights
TTITLE2=Music=Love
TTITLE3=La La Cabana
TTITLE4=11:58
TTITLE5=Summertime
TTITLE6=Soulsax
TTITLE7=Smokin' Gun
TTITLE8=Back to Juan
TTITLE9=If I Ruled the World
TTITLE10=Everytime
TTITLE11=Good Time
TTITLE12=You Are the One
EXTD=YEAR: 2007
EXTT0=
EXTT1=
EXTT2=
EXTT3=
EXTT4=
EXTT5=
EXTT6=
EXTT7=
EXTT8=
EXTT9=
EXTT10=
EXTT11=
EXTT12=
PLAYORDER=
